inDegrees=no
num_controls=7
num_derivatives=13
num_iterations=145
num_multipliers=7
num_parameters=0
num_slacks=7
num_states=26
objective=5.335249
objective_accelerations=0.349286
objective_balance=0.034334
objective_effort=0.389631
objective_height=4.536768
objective_ligament=0.025229
solver_duration=1651.449126
status=Solve_Succeeded
success=true
DataType=double
version=3
OpenSimVersion=4.4-2022-07-23-0e9fedc
endheader
time	/jointset/ground_pelvis/pelvis_tilt/value	/jointset/ground_pelvis/pelvis_tx/value	/jointset/ground_pelvis/pelvis_ty/value	/jointset/hip_l/hip_flexion_l/value	/jointset/hip_l/hip_adduction_l/value	/jointset/hip_l/hip_rotation_l/value	/jointset/back/lumbar_extension/value	/jointset/patellofemoral_l/patellar_flexion_l/value	/jointset/knee_l/knee_flexion_l/value	/jointset/knee_l/knee_adduction_l/value	/jointset/knee_l/knee_rotation_l/value	/jointset/ankle_l/ankle_angle_l/value	/jointset/subtalar_l/subtalar_angle_l/value	/jointset/ground_pelvis/pelvis_tilt/speed	/jointset/ground_pelvis/pelvis_tx/speed	/jointset/ground_pelvis/pelvis_ty/speed	/jointset/hip_l/hip_flexion_l/speed	/jointset/hip_l/hip_adduction_l/speed	/jointset/hip_l/hip_rotation_l/speed	/jointset/back/lumbar_extension/speed	/jointset/patellofemoral_l/patellar_flexion_l/speed	/jointset/knee_l/knee_flexion_l/speed	/jointset/knee_l/knee_adduction_l/speed	/jointset/knee_l/knee_rotation_l/speed	/jointset/ankle_l/ankle_angle_l/speed	/jointset/subtalar_l/subtalar_angle_l/speed	/forceset/tau_hip_flexion_l	/forceset/tau_hip_adduction_l	/forceset/tau_hip_rotation_l	/forceset/tau_knee_flexion_l	/forceset/tau_ankle_angle_l	/forceset/tau_subtalar_angle_l	/forceset/tau_lumbar_extension	lambda_cid13_p0	lambda_cid13_p1	lambda_cid13_p2	lambda_cid13_p3	lambda_cid13_p4	lambda_cid13_p5	lambda_cid14_p0	/jointset/ground_pelvis/pelvis_tilt/accel	/jointset/ground_pelvis/pelvis_tx/accel	/jointset/ground_pelvis/pelvis_ty/accel	/jointset/hip_l/hip_flexion_l/accel	/jointset/hip_l/hip_adduction_l/accel	/jointset/hip_l/hip_rotation_l/accel	/jointset/back/lumbar_extension/accel	/jointset/patellofemoral_l/patellar_flexion_l/accel	/jointset/knee_l/knee_flexion_l/accel	/jointset/knee_l/knee_adduction_l/accel	/jointset/knee_l/knee_rotation_l/accel	/jointset/ankle_l/ankle_angle_l/accel	/jointset/subtalar_l/subtalar_angle_l/accel	gamma_cid13_p0	gamma_cid13_p1	gamma_cid13_p2	gamma_cid13_p3	gamma_cid13_p4	gamma_cid13_p5	gamma_cid14_p0
0.5	-0.05085844804071805	-0.02302816430352965	0.8432172207712173	0.754440331449016	-0.3345879925124959	-0.1135875116652509	-0.7699623679711367	0.7746176265734989	0.7746176265734389	-0.1386890890201512	-0.1745297968936104	0.1224547859947203	-0.001277423105419204	-0.01871438246003035	-0.1395023688115437	-0.2716275327534876	1.12779694437779	-0.0513758588674588	0.4835990620314145	-0.8461103678416582	1.388204508057459	1.388204508057441	0.08058149585527272	-7.975545747766432e-06	0.3733777082665813	0.06549852878418258	-0.2346945364727931	0.02171454170020332	-0.0005419627497141762	-0.2245738329472025	0.07400136401168134	0.04837443830713881	0.3038275210104752	-20.68739327831462	-19.72493069677181	5.361086973632222	-5.610630884397184	-704.441559877576	-81.48046981263438	-15.41281500481117	0.1425132033437472	0.4974362315344981	-0.09138633723927443	-1.218813911113741	0.2910654585898055	-0.4159574456056296	1.562759511947059	-1.127003198955435	-1.127003198955468	-0.1296595509937629	0.01340671222515235	-0.07720661739341032	0.3155105524319433	-5.084460127412978e-08	-3.943813263387669e-07	1.470253722356728e-07	-4.150491159888795e-08	-6.300392501180358e-08	-1.496849467180658e-07	-6.419657018537253e-08
0.51	-0.05103852121819379	-0.02439825137931041	0.8404969513715331	0.7656557591189284	-0.3350875485620639	-0.1087733530943406	-0.7783442695541639	0.788441244754534	0.7884412447544697	-0.1378901647587678	-0.1745298417114975	0.1261839289440721	-0.0006072603463348091	-0.01729412501321691	-0.1345084394845089	-0.2723655163422765	1.115123207097878	-0.04854443077691354	0.4791710330527607	-0.8301749569706749	1.376317783285134	1.376317783285124	0.0791912654059088	-2.093117035302334e-06	0.3723899211731846	0.06850839674233894	-0.2395789578038139	0.02233857650086215	-0.0005671805219947928	-0.2272498061057489	0.07280820061582348	0.04857219906186657	0.309017893825033	-21.24306186217387	-19.69084388479046	5.329745616835801	-5.441721044244693	-707.5816916542992	-81.35481191965232	-14.91585039398397	0.1426983774386107	0.501353108848274	-0.05588985881161384	-1.31646380140313	0.2778470759722121	-0.4655201899755174	1.623180644073056	-1.249697575786721	-1.249697575785449	-0.1455770061039887	-0.005965072996272061	-0.118720983768564	0.2899294863505676	-3.882694023176652e-08	-3.598940674192665e-07	9.892302602544489e-08	-4.477801206166868e-08	-4.648273456285236e-08	-1.274612751297307e-07	-5.408875057040428e-08
0.52	-0.05120420854878711	-0.02571820279670917	0.8377711250381387	0.7767394873830468	-0.3355590572123899	-0.1040053337264128	-0.7865639672746011	0.8021399575959652	0.8021399575958935	-0.1371055172447204	-0.1745298565213297	0.1299013627767984	9.22420060996669e-05	-0.01583721308284437	-0.1294752371351459	-0.272738919495583	1.101457063219026	-0.04576637901895393	0.4743712214348986	-0.8136695953237005	1.363223440136181	1.36322344013618	0.07772614638869239	-1.973935945506383e-06	0.3710358849415569	0.07136644745421893	-0.244463379134822	0.0229626113015169	-0.0005923982943024628	-0.2299257792642901	0.07161503721996514	0.0487699598165896	0.3142082666396031	-21.80156169528297	-19.6565609078335	5.298715358772747	-5.298291472418824	-710.7901090230149	-81.24972582976052	-14.41685232280979	0.1498441000560293	0.5052908359998044	-0.0184702501428473	-1.417295230901775	0.2803901920727193	-0.490313973447225	1.676749667145522	-1.368526874280936	-1.368526874280903	-0.1446372645642032	0.01225406270067482	-0.1504564450400257	0.2851471031765776	-3.488622890181309e-08	-3.208183786110997e-07	9.534452205214329e-08	-4.228320121181156e-08	-3.821300883500528e-08	-1.145273431251488e-07	-4.951828696937127e-08
0.53	-0.05135517728758749	-0.02698767202577708	0.8350433900508319	0.7876817585181554	-0.3360030235843667	-0.09928707031323419	-0.7946158722659449	0.8157018312119987	0.81570183121193	-0.1363357996536977	-0.1745297986848718	0.1336034772566257	0.0008196085895349864	-0.01435153706939796	-0.1244163559211506	-0.2727462020419399	1.086840774985301	-0.04303681485492292	0.4692185900365524	-0.7966300529704373	1.348958804659122	1.348958804659119	0.07621142050553247	1.100781048793323e-05	0.3693280857848552	0.07408053129696475	-0.2491149402812119	0.02349367079907794	-0.0006337005377656283	-0.2326723504266895	0.07043298886339201	0.04892017148460646	0.3191696901604806	-22.35372893599165	-19.6005971726254	5.261785168437712	-5.099435790517372	-713.8958772748357	-81.13218538312404	-13.91637356061991	0.1486759343030464	0.5065164822802755	0.01741735772337629	-1.507256763971464	0.2677703050584718	-0.5372114512512303	1.729759016046614	-1.484294222451851	-1.484294222452186	-0.1558288866239642	-0.004540420231778933	-0.18978987302834	0.2606251005299708	-3.101232065306056e-08	-2.830424945670299e-07	9.145550574544536e-08	-3.966130998542389e-08	-3.068085578447885e-08	-1.018261890107333e-07	-4.501019372551762e-08
0.54	-0.05149113994979751	-0.02820648649906913	0.8323174371609831	0.7984731745420502	-0.3364199881594064	-0.09462222795968635	-0.8024949413344308	0.829115286005651	0.8291152860055925	-0.1355814170487773	-0.1745296831611383	0.1372867441004764	0.001573333226538878	-0.01283599776335971	-0.1193442859799736	-0.2723825000040927	1.071286040977029	-0.04036601963127832	0.4636870095092872	-0.7791024107519535	1.333539675660719	1.333539675660715	0.07465914916508515	9.563523064498005e-06	0.3672663577464275	0.07663805816796544	-0.2537665014276017	0.02402473029662328	-0.0006750027811147403	-0.2354189215890997	0.06925094050681208	0.04907038315260197	0.3241311136813635	-22.90978956286068	-19.54419908670928	5.225068462585237	-4.922248033790046	-717.0834789152525	-81.03551578270587	-13.41508318907279	0.1558167585748547	0.5079285814358259	0.05572666669792608	-1.604984385811193	0.2686364039954813	-0.5661037992310055	1.77436964018987	-1.599425578549638	-1.599425578549657	-0.1521463560216308	0.009368855929353366	-0.2212422213855932	0.2538357088274605	-2.721232219627496e-08	-2.467046923896206e-07	8.722294387839406e-08	-3.689881919351306e-08	-2.396474058971146e-08	-8.938257639182076e-08	-4.057110598322412e-08
0.55	-0.05161181895335857	-0.02937455741914491	0.8295969774885694	0.8091044825689713	-0.3368105227265455	-0.09001446554169047	-0.8101963985043182	0.8423688915356727	0.8423688915356248	-0.1348427123384512	-0.1745295386400968	0.1409476626425677	0.002351872774505753	-0.01129520326209397	-0.1142717287520298	-0.2716468050752586	1.054826135422851	-0.03775306186363199	0.457805466796511	-0.7611201215372733	1.316996064455742	1.316996064455739	0.07307556009419576	1.714502288725681e-05	0.3648594403207144	0.07904063194227816	-0.258206639650733	0.02453770394711187	-0.0007254677082412682	-0.2381696356664587	0.0680309404045141	0.04913330563220356	0.3288725081029441	-23.47488260014397	-19.44469113064676	5.177345289413979	-4.678442491190514	-720.1424066282185	-80.87635238204128	-12.91373124257165	0.1538976867261464	0.506637606741656	0.09188125609688495	-1.688910692335822	0.2558114254590544	-0.6082151550171547	1.820493815775584	-1.709626144569194	-1.709626144568792	-0.1624344197679717	-0.003859492713392094	-0.2591099165329013	0.2291113465060958	-2.410503201429895e-08	-2.076268199323628e-07	8.871501145608816e-08	-3.286781083092906e-08	-1.861058657545861e-08	-7.688383098829889e-08	-3.651485304505313e-08
